<mxfile host="app.diagrams.net" modified="2023-12-21T09:12:40.659Z" agent="Mozilla/5.0 (Windows NT 10.0; Win64; x64) AppleWebKit/537.36 (KHTML, like Gecko) Chrome/119.0.0.0 Safari/537.36 OPR/105.0.0.0" etag="XmPCWzqKyeUlBLsZAMNK" version="22.1.11" type="github">
  <diagram name="Page-1" id="8pAGR27a--nfAObntAkz">
    <mxGraphModel dx="1393" dy="804" grid="1" gridSize="10" guides="1" tooltips="1" connect="1" arrows="1" fold="1" page="1" pageScale="1" pageWidth="850" pageHeight="1100" math="0" shadow="0">
      <root>
        <mxCell id="0" />
        <mxCell id="1" parent="0" />
        <mxCell id="GxQh0LprjcnWy6-oS0J2-1" value="Client" style="rounded=0;whiteSpace=wrap;html=1;" vertex="1" parent="1">
          <mxGeometry x="40" y="100" width="120" height="60" as="geometry" />
        </mxCell>
        <mxCell id="GxQh0LprjcnWy6-oS0J2-2" value="Application" style="rounded=0;whiteSpace=wrap;html=1;" vertex="1" parent="1">
          <mxGeometry x="200" y="100" width="120" height="60" as="geometry" />
        </mxCell>
        <mxCell id="GxQh0LprjcnWy6-oS0J2-3" value="Database" style="rounded=0;whiteSpace=wrap;html=1;" vertex="1" parent="1">
          <mxGeometry x="360" y="100" width="120" height="60" as="geometry" />
        </mxCell>
        <mxCell id="GxQh0LprjcnWy6-oS0J2-4" value="Authentication" style="rounded=0;whiteSpace=wrap;html=1;" vertex="1" parent="1">
          <mxGeometry x="520" y="100" width="120" height="60" as="geometry" />
        </mxCell>
        <mxCell id="GxQh0LprjcnWy6-oS0J2-5" value="" style="endArrow=none;dashed=1;html=1;dashPattern=1 3;strokeWidth=2;rounded=0;entryX=0.5;entryY=1;entryDx=0;entryDy=0;" edge="1" parent="1" source="GxQh0LprjcnWy6-oS0J2-11" target="GxQh0LprjcnWy6-oS0J2-1">
          <mxGeometry width="50" height="50" relative="1" as="geometry">
            <mxPoint x="100" y="500" as="sourcePoint" />
            <mxPoint x="450" y="290" as="targetPoint" />
          </mxGeometry>
        </mxCell>
        <mxCell id="GxQh0LprjcnWy6-oS0J2-7" value="" style="endArrow=none;dashed=1;html=1;dashPattern=1 3;strokeWidth=2;rounded=0;entryX=0.5;entryY=1;entryDx=0;entryDy=0;" edge="1" parent="1" source="GxQh0LprjcnWy6-oS0J2-14">
          <mxGeometry width="50" height="50" relative="1" as="geometry">
            <mxPoint x="259.5" y="500" as="sourcePoint" />
            <mxPoint x="259.5" y="160" as="targetPoint" />
          </mxGeometry>
        </mxCell>
        <mxCell id="GxQh0LprjcnWy6-oS0J2-8" value="" style="endArrow=none;dashed=1;html=1;dashPattern=1 3;strokeWidth=2;rounded=0;entryX=0.5;entryY=1;entryDx=0;entryDy=0;" edge="1" parent="1" source="GxQh0LprjcnWy6-oS0J2-67">
          <mxGeometry width="50" height="50" relative="1" as="geometry">
            <mxPoint x="419.5" y="500" as="sourcePoint" />
            <mxPoint x="419.5" y="160" as="targetPoint" />
          </mxGeometry>
        </mxCell>
        <mxCell id="GxQh0LprjcnWy6-oS0J2-9" value="" style="endArrow=none;dashed=1;html=1;dashPattern=1 3;strokeWidth=2;rounded=0;entryX=0.5;entryY=1;entryDx=0;entryDy=0;" edge="1" parent="1" source="GxQh0LprjcnWy6-oS0J2-21">
          <mxGeometry width="50" height="50" relative="1" as="geometry">
            <mxPoint x="579.5" y="500" as="sourcePoint" />
            <mxPoint x="579.5" y="160" as="targetPoint" />
          </mxGeometry>
        </mxCell>
        <mxCell id="GxQh0LprjcnWy6-oS0J2-12" value="" style="endArrow=none;dashed=1;html=1;dashPattern=1 3;strokeWidth=2;rounded=0;entryX=0.5;entryY=1;entryDx=0;entryDy=0;" edge="1" parent="1" source="GxQh0LprjcnWy6-oS0J2-72" target="GxQh0LprjcnWy6-oS0J2-11">
          <mxGeometry width="50" height="50" relative="1" as="geometry">
            <mxPoint x="100" y="500" as="sourcePoint" />
            <mxPoint x="100" y="160" as="targetPoint" />
          </mxGeometry>
        </mxCell>
        <mxCell id="GxQh0LprjcnWy6-oS0J2-11" value="" style="html=1;points=[[0,0,0,0,5],[0,1,0,0,-5],[1,0,0,0,5],[1,1,0,0,-5]];perimeter=orthogonalPerimeter;outlineConnect=0;targetShapes=umlLifeline;portConstraint=eastwest;newEdgeStyle={&quot;curved&quot;:0,&quot;rounded&quot;:0};fillColor=#808080;align=center;verticalAlign=middle;fontFamily=Helvetica;fontSize=10;fontColor=default;" vertex="1" parent="1">
          <mxGeometry x="95" y="190" width="10" height="50" as="geometry" />
        </mxCell>
        <mxCell id="GxQh0LprjcnWy6-oS0J2-16" value="" style="endArrow=none;dashed=1;html=1;dashPattern=1 3;strokeWidth=2;rounded=0;entryX=0.5;entryY=1;entryDx=0;entryDy=0;" edge="1" parent="1" source="GxQh0LprjcnWy6-oS0J2-57" target="GxQh0LprjcnWy6-oS0J2-14">
          <mxGeometry width="50" height="50" relative="1" as="geometry">
            <mxPoint x="259.5" y="500" as="sourcePoint" />
            <mxPoint x="259.5" y="160" as="targetPoint" />
          </mxGeometry>
        </mxCell>
        <mxCell id="GxQh0LprjcnWy6-oS0J2-14" value="" style="html=1;points=[[0,0,0,0,5],[0,1,0,0,-5],[1,0,0,0,5],[1,1,0,0,-5]];perimeter=orthogonalPerimeter;outlineConnect=0;targetShapes=umlLifeline;portConstraint=eastwest;newEdgeStyle={&quot;curved&quot;:0,&quot;rounded&quot;:0};fillColor=#808080;align=center;verticalAlign=middle;fontFamily=Helvetica;fontSize=10;fontColor=default;" vertex="1" parent="1">
          <mxGeometry x="255" y="190" width="10" height="50" as="geometry" />
        </mxCell>
        <mxCell id="GxQh0LprjcnWy6-oS0J2-19" style="edgeStyle=none;shape=connector;rounded=0;orthogonalLoop=1;jettySize=auto;html=1;curved=0;labelBackgroundColor=default;strokeColor=default;align=center;verticalAlign=middle;fontFamily=Helvetica;fontSize=10;fontColor=default;endArrow=classic;" edge="1" parent="1">
          <mxGeometry relative="1" as="geometry">
            <mxPoint x="105" y="200" as="sourcePoint" />
            <mxPoint x="255" y="200" as="targetPoint" />
            <Array as="points">
              <mxPoint x="170" y="200" />
              <mxPoint x="230" y="200" />
            </Array>
          </mxGeometry>
        </mxCell>
        <mxCell id="GxQh0LprjcnWy6-oS0J2-20" value="&lt;font style=&quot;font-size: 9px;&quot;&gt;&lt;b&gt;Post&lt;/b&gt;: Follow User&lt;/font&gt;" style="edgeLabel;html=1;align=center;verticalAlign=middle;resizable=0;points=[];" vertex="1" connectable="0" parent="GxQh0LprjcnWy6-oS0J2-19">
          <mxGeometry x="-0.2154" y="1" relative="1" as="geometry">
            <mxPoint as="offset" />
          </mxGeometry>
        </mxCell>
        <mxCell id="GxQh0LprjcnWy6-oS0J2-22" value="" style="endArrow=none;dashed=1;html=1;dashPattern=1 3;strokeWidth=2;rounded=0;entryX=0.5;entryY=1;entryDx=0;entryDy=0;" edge="1" parent="1" target="GxQh0LprjcnWy6-oS0J2-21">
          <mxGeometry width="50" height="50" relative="1" as="geometry">
            <mxPoint x="580" y="550" as="sourcePoint" />
            <mxPoint x="579.5" y="160" as="targetPoint" />
          </mxGeometry>
        </mxCell>
        <mxCell id="GxQh0LprjcnWy6-oS0J2-21" value="" style="html=1;points=[[0,0,0,0,5],[0,1,0,0,-5],[1,0,0,0,5],[1,1,0,0,-5]];perimeter=orthogonalPerimeter;outlineConnect=0;targetShapes=umlLifeline;portConstraint=eastwest;newEdgeStyle={&quot;curved&quot;:0,&quot;rounded&quot;:0};fillColor=#808080;align=center;verticalAlign=middle;fontFamily=Helvetica;fontSize=10;fontColor=default;" vertex="1" parent="1">
          <mxGeometry x="575" y="190" width="10" height="50" as="geometry" />
        </mxCell>
        <mxCell id="GxQh0LprjcnWy6-oS0J2-23" style="edgeStyle=none;shape=connector;rounded=0;orthogonalLoop=1;jettySize=auto;html=1;curved=0;labelBackgroundColor=default;strokeColor=default;align=center;verticalAlign=middle;fontFamily=Helvetica;fontSize=10;fontColor=default;endArrow=classic;" edge="1" parent="1">
          <mxGeometry relative="1" as="geometry">
            <mxPoint x="265" y="214.58" as="sourcePoint" />
            <mxPoint x="575" y="214.58" as="targetPoint" />
            <Array as="points">
              <mxPoint x="330" y="214.58" />
              <mxPoint x="390" y="214.58" />
            </Array>
          </mxGeometry>
        </mxCell>
        <mxCell id="GxQh0LprjcnWy6-oS0J2-24" value="&lt;font size=&quot;1&quot;&gt;&lt;b&gt;Is User authenticated?&lt;/b&gt;&lt;/font&gt;" style="edgeLabel;html=1;align=center;verticalAlign=middle;resizable=0;points=[];" vertex="1" connectable="0" parent="GxQh0LprjcnWy6-oS0J2-23">
          <mxGeometry x="-0.2154" y="1" relative="1" as="geometry">
            <mxPoint as="offset" />
          </mxGeometry>
        </mxCell>
        <mxCell id="GxQh0LprjcnWy6-oS0J2-25" value="" style="endArrow=none;dashed=1;html=1;dashPattern=1 3;strokeWidth=2;rounded=0;exitX=1;exitY=0.5;exitDx=0;exitDy=0;" edge="1" parent="1" source="GxQh0LprjcnWy6-oS0J2-26" target="GxQh0LprjcnWy6-oS0J2-21">
          <mxGeometry width="50" height="50" relative="1" as="geometry">
            <mxPoint x="290" y="360" as="sourcePoint" />
            <mxPoint x="340" y="310" as="targetPoint" />
          </mxGeometry>
        </mxCell>
        <mxCell id="GxQh0LprjcnWy6-oS0J2-27" value="" style="endArrow=none;dashed=1;html=1;dashPattern=1 3;strokeWidth=2;rounded=0;startArrow=classic;startFill=1;" edge="1" parent="1" target="GxQh0LprjcnWy6-oS0J2-26">
          <mxGeometry width="50" height="50" relative="1" as="geometry">
            <mxPoint x="270" y="235" as="sourcePoint" />
            <mxPoint x="575" y="235" as="targetPoint" />
          </mxGeometry>
        </mxCell>
        <mxCell id="GxQh0LprjcnWy6-oS0J2-26" value="&lt;i&gt;Yes/No&lt;/i&gt;" style="text;html=1;strokeColor=none;fillColor=none;align=center;verticalAlign=middle;whiteSpace=wrap;rounded=0;" vertex="1" parent="1">
          <mxGeometry x="350" y="220" width="60" height="30" as="geometry" />
        </mxCell>
        <mxCell id="GxQh0LprjcnWy6-oS0J2-28" value="" style="rounded=0;whiteSpace=wrap;html=1;fillColor=none;" vertex="1" parent="1">
          <mxGeometry x="40" y="260" width="590" height="210" as="geometry" />
        </mxCell>
        <mxCell id="GxQh0LprjcnWy6-oS0J2-30" value="&lt;font style=&quot;font-size: 9px;&quot;&gt;&lt;i&gt;[if Authenticated = Yes]&lt;/i&gt;&lt;/font&gt;" style="text;html=1;align=center;verticalAlign=middle;resizable=0;points=[];autosize=1;strokeColor=none;fillColor=none;" vertex="1" parent="1">
          <mxGeometry x="30" y="250" width="120" height="30" as="geometry" />
        </mxCell>
        <mxCell id="GxQh0LprjcnWy6-oS0J2-31" value="" style="html=1;points=[[0,0,0,0,5],[0,1,0,0,-5],[1,0,0,0,5],[1,1,0,0,-5]];perimeter=orthogonalPerimeter;outlineConnect=0;targetShapes=umlLifeline;portConstraint=eastwest;newEdgeStyle={&quot;curved&quot;:0,&quot;rounded&quot;:0};fillColor=#808080;align=center;verticalAlign=middle;fontFamily=Helvetica;fontSize=10;fontColor=default;" vertex="1" parent="1">
          <mxGeometry x="255" y="270" width="10" height="50" as="geometry" />
        </mxCell>
        <mxCell id="GxQh0LprjcnWy6-oS0J2-32" value="" style="html=1;points=[[0,0,0,0,5],[0,1,0,0,-5],[1,0,0,0,5],[1,1,0,0,-5]];perimeter=orthogonalPerimeter;outlineConnect=0;targetShapes=umlLifeline;portConstraint=eastwest;newEdgeStyle={&quot;curved&quot;:0,&quot;rounded&quot;:0};fillColor=#808080;align=center;verticalAlign=middle;fontFamily=Helvetica;fontSize=10;fontColor=default;" vertex="1" parent="1">
          <mxGeometry x="415" y="270" width="10" height="50" as="geometry" />
        </mxCell>
        <mxCell id="GxQh0LprjcnWy6-oS0J2-35" value="" style="endArrow=classic;html=1;rounded=0;" edge="1" parent="1">
          <mxGeometry width="50" height="50" relative="1" as="geometry">
            <mxPoint x="367.5" y="284.8" as="sourcePoint" />
            <mxPoint x="415" y="284.8" as="targetPoint" />
          </mxGeometry>
        </mxCell>
        <mxCell id="GxQh0LprjcnWy6-oS0J2-39" value="" style="endArrow=none;html=1;rounded=0;strokeColor=default;endFill=0;" edge="1" parent="1" source="GxQh0LprjcnWy6-oS0J2-31" target="GxQh0LprjcnWy6-oS0J2-34">
          <mxGeometry width="50" height="50" relative="1" as="geometry">
            <mxPoint x="270" y="280" as="sourcePoint" />
            <mxPoint x="300" y="280" as="targetPoint" />
            <Array as="points">
              <mxPoint x="280" y="285" />
            </Array>
          </mxGeometry>
        </mxCell>
        <mxCell id="GxQh0LprjcnWy6-oS0J2-34" value="Follow user" style="text;html=1;strokeColor=none;fillColor=none;align=center;verticalAlign=middle;whiteSpace=wrap;rounded=0;" vertex="1" parent="1">
          <mxGeometry x="302.5" y="270" width="65" height="30" as="geometry" />
        </mxCell>
        <mxCell id="GxQh0LprjcnWy6-oS0J2-40" value="Follow user - Sub System Sequence Diagram" style="text;html=1;align=center;verticalAlign=middle;resizable=0;points=[];autosize=1;strokeColor=none;fillColor=none;" vertex="1" parent="1">
          <mxGeometry x="205" y="10" width="270" height="30" as="geometry" />
        </mxCell>
        <mxCell id="GxQh0LprjcnWy6-oS0J2-41" value="" style="endArrow=none;dashed=1;html=1;dashPattern=1 3;strokeWidth=2;rounded=0;startArrow=none;startFill=0;" edge="1" parent="1" source="GxQh0LprjcnWy6-oS0J2-42" target="GxQh0LprjcnWy6-oS0J2-32">
          <mxGeometry width="50" height="50" relative="1" as="geometry">
            <mxPoint x="270" y="315" as="sourcePoint" />
            <mxPoint x="380" y="290" as="targetPoint" />
          </mxGeometry>
        </mxCell>
        <mxCell id="GxQh0LprjcnWy6-oS0J2-43" value="" style="endArrow=none;dashed=1;html=1;dashPattern=1 3;strokeWidth=2;rounded=0;startArrow=classic;startFill=1;" edge="1" parent="1" target="GxQh0LprjcnWy6-oS0J2-42">
          <mxGeometry width="50" height="50" relative="1" as="geometry">
            <mxPoint x="270" y="315" as="sourcePoint" />
            <mxPoint x="415" y="315" as="targetPoint" />
          </mxGeometry>
        </mxCell>
        <mxCell id="GxQh0LprjcnWy6-oS0J2-42" value="&lt;i&gt;Success&lt;/i&gt;" style="text;html=1;strokeColor=none;fillColor=none;align=center;verticalAlign=middle;whiteSpace=wrap;rounded=0;" vertex="1" parent="1">
          <mxGeometry x="307.5" y="300" width="60" height="30" as="geometry" />
        </mxCell>
        <mxCell id="GxQh0LprjcnWy6-oS0J2-44" value="" style="html=1;points=[[0,0,0,0,5],[0,1,0,0,-5],[1,0,0,0,5],[1,1,0,0,-5]];perimeter=orthogonalPerimeter;outlineConnect=0;targetShapes=umlLifeline;portConstraint=eastwest;newEdgeStyle={&quot;curved&quot;:0,&quot;rounded&quot;:0};fillColor=#808080;align=center;verticalAlign=middle;fontFamily=Helvetica;fontSize=10;fontColor=default;" vertex="1" parent="1">
          <mxGeometry x="95" y="280" width="10" height="100" as="geometry" />
        </mxCell>
        <mxCell id="GxQh0LprjcnWy6-oS0J2-46" value="" style="endArrow=none;html=1;rounded=0;startArrow=none;startFill=0;" edge="1" parent="1" source="GxQh0LprjcnWy6-oS0J2-47">
          <mxGeometry width="50" height="50" relative="1" as="geometry">
            <mxPoint x="105" y="314.58" as="sourcePoint" />
            <mxPoint x="255" y="314.58" as="targetPoint" />
          </mxGeometry>
        </mxCell>
        <mxCell id="GxQh0LprjcnWy6-oS0J2-53" value="" style="endArrow=none;html=1;rounded=0;startArrow=classic;startFill=1;" edge="1" parent="1" target="GxQh0LprjcnWy6-oS0J2-47">
          <mxGeometry width="50" height="50" relative="1" as="geometry">
            <mxPoint x="105" y="314.58" as="sourcePoint" />
            <mxPoint x="255" y="314.58" as="targetPoint" />
          </mxGeometry>
        </mxCell>
        <mxCell id="GxQh0LprjcnWy6-oS0J2-47" value="&lt;b&gt;Redirect&lt;/b&gt;: Public Timeline Page = 1" style="text;html=1;strokeColor=none;fillColor=none;align=center;verticalAlign=middle;whiteSpace=wrap;rounded=0;" vertex="1" parent="1">
          <mxGeometry x="130" y="300" width="100" height="30" as="geometry" />
        </mxCell>
        <mxCell id="GxQh0LprjcnWy6-oS0J2-56" value="" style="endArrow=none;html=1;rounded=0;startArrow=none;startFill=0;exitX=0.006;exitY=0.339;exitDx=0;exitDy=0;exitPerimeter=0;" edge="1" parent="1">
          <mxGeometry width="50" height="50" relative="1" as="geometry">
            <mxPoint x="130.59999999999997" y="355.0800000000001" as="sourcePoint" />
            <mxPoint x="105" y="354.91" as="targetPoint" />
            <Array as="points">
              <mxPoint x="120" y="354.91" />
            </Array>
          </mxGeometry>
        </mxCell>
        <mxCell id="GxQh0LprjcnWy6-oS0J2-58" value="" style="endArrow=none;dashed=1;html=1;dashPattern=1 3;strokeWidth=2;rounded=0;entryX=0.5;entryY=1;entryDx=0;entryDy=0;" edge="1" parent="1" target="GxQh0LprjcnWy6-oS0J2-57">
          <mxGeometry width="50" height="50" relative="1" as="geometry">
            <mxPoint x="260" y="550" as="sourcePoint" />
            <mxPoint x="260" y="240" as="targetPoint" />
          </mxGeometry>
        </mxCell>
        <mxCell id="GxQh0LprjcnWy6-oS0J2-57" value="" style="html=1;points=[[0,0,0,0,5],[0,1,0,0,-5],[1,0,0,0,5],[1,1,0,0,-5]];perimeter=orthogonalPerimeter;outlineConnect=0;targetShapes=umlLifeline;portConstraint=eastwest;newEdgeStyle={&quot;curved&quot;:0,&quot;rounded&quot;:0};fillColor=#808080;align=center;verticalAlign=middle;fontFamily=Helvetica;fontSize=10;fontColor=default;" vertex="1" parent="1">
          <mxGeometry x="255" y="350" width="10" height="60" as="geometry" />
        </mxCell>
        <mxCell id="GxQh0LprjcnWy6-oS0J2-61" value="" style="endArrow=none;html=1;rounded=0;startArrow=classic;startFill=1;exitX=0;exitY=0;exitDx=0;exitDy=5;exitPerimeter=0;" edge="1" parent="1" source="GxQh0LprjcnWy6-oS0J2-57" target="GxQh0LprjcnWy6-oS0J2-60">
          <mxGeometry width="50" height="50" relative="1" as="geometry">
            <mxPoint x="255" y="355" as="sourcePoint" />
            <mxPoint x="105" y="355" as="targetPoint" />
          </mxGeometry>
        </mxCell>
        <mxCell id="GxQh0LprjcnWy6-oS0J2-60" value="&lt;b&gt;Get&lt;/b&gt;: Public Timeline Page=1" style="text;html=1;strokeColor=none;fillColor=none;align=center;verticalAlign=middle;whiteSpace=wrap;rounded=0;" vertex="1" parent="1">
          <mxGeometry x="130" y="340" width="100" height="30" as="geometry" />
        </mxCell>
        <mxCell id="GxQh0LprjcnWy6-oS0J2-64" value="" style="endArrow=classic;html=1;rounded=0;exitX=0.987;exitY=0.496;exitDx=0;exitDy=0;exitPerimeter=0;" edge="1" parent="1">
          <mxGeometry width="50" height="50" relative="1" as="geometry">
            <mxPoint x="397.2225000000001" y="364.96999999999986" as="sourcePoint" />
            <mxPoint x="415" y="364.89" as="targetPoint" />
          </mxGeometry>
        </mxCell>
        <mxCell id="GxQh0LprjcnWy6-oS0J2-65" value="" style="endArrow=none;html=1;rounded=0;strokeColor=default;endFill=0;" edge="1" parent="1" target="GxQh0LprjcnWy6-oS0J2-66">
          <mxGeometry width="50" height="50" relative="1" as="geometry">
            <mxPoint x="265" y="365" as="sourcePoint" />
            <mxPoint x="300" y="360" as="targetPoint" />
            <Array as="points">
              <mxPoint x="280" y="365" />
            </Array>
          </mxGeometry>
        </mxCell>
        <mxCell id="GxQh0LprjcnWy6-oS0J2-66" value="Get Cheeps for page" style="text;html=1;strokeColor=none;fillColor=none;align=center;verticalAlign=middle;whiteSpace=wrap;rounded=0;" vertex="1" parent="1">
          <mxGeometry x="281.25" y="350" width="117.5" height="30" as="geometry" />
        </mxCell>
        <mxCell id="GxQh0LprjcnWy6-oS0J2-68" value="" style="endArrow=none;dashed=1;html=1;dashPattern=1 3;strokeWidth=2;rounded=0;entryX=0.5;entryY=1;entryDx=0;entryDy=0;" edge="1" parent="1" target="GxQh0LprjcnWy6-oS0J2-67">
          <mxGeometry width="50" height="50" relative="1" as="geometry">
            <mxPoint x="420" y="550" as="sourcePoint" />
            <mxPoint x="419.5" y="160" as="targetPoint" />
          </mxGeometry>
        </mxCell>
        <mxCell id="GxQh0LprjcnWy6-oS0J2-67" value="" style="html=1;points=[[0,0,0,0,5],[0,1,0,0,-5],[1,0,0,0,5],[1,1,0,0,-5]];perimeter=orthogonalPerimeter;outlineConnect=0;targetShapes=umlLifeline;portConstraint=eastwest;newEdgeStyle={&quot;curved&quot;:0,&quot;rounded&quot;:0};fillColor=#808080;align=center;verticalAlign=middle;fontFamily=Helvetica;fontSize=10;fontColor=default;" vertex="1" parent="1">
          <mxGeometry x="415" y="360" width="10" height="50" as="geometry" />
        </mxCell>
        <mxCell id="GxQh0LprjcnWy6-oS0J2-69" value="" style="endArrow=none;html=1;rounded=0;entryX=0.5;entryY=0.6;entryDx=0;entryDy=0;entryPerimeter=0;startArrow=none;startFill=0;" edge="1" parent="1">
          <mxGeometry width="50" height="50" relative="1" as="geometry">
            <mxPoint x="367.5" y="394.86" as="sourcePoint" />
            <mxPoint x="417.5" y="394.86" as="targetPoint" />
          </mxGeometry>
        </mxCell>
        <mxCell id="GxQh0LprjcnWy6-oS0J2-71" value="" style="endArrow=none;html=1;rounded=0;startArrow=classic;startFill=1;" edge="1" parent="1">
          <mxGeometry width="50" height="50" relative="1" as="geometry">
            <mxPoint x="265" y="394.85999999999996" as="sourcePoint" />
            <mxPoint x="300" y="394.85999999999996" as="targetPoint" />
          </mxGeometry>
        </mxCell>
        <mxCell id="GxQh0LprjcnWy6-oS0J2-70" value="&lt;i&gt;Cheeps&lt;/i&gt;" style="text;html=1;strokeColor=none;fillColor=none;align=center;verticalAlign=middle;whiteSpace=wrap;rounded=0;" vertex="1" parent="1">
          <mxGeometry x="305" y="380" width="60" height="30" as="geometry" />
        </mxCell>
        <mxCell id="GxQh0LprjcnWy6-oS0J2-73" value="" style="endArrow=none;dashed=1;html=1;dashPattern=1 3;strokeWidth=2;rounded=0;entryX=0.5;entryY=1;entryDx=0;entryDy=0;" edge="1" parent="1" target="GxQh0LprjcnWy6-oS0J2-72">
          <mxGeometry width="50" height="50" relative="1" as="geometry">
            <mxPoint x="100" y="550" as="sourcePoint" />
            <mxPoint x="100" y="240" as="targetPoint" />
          </mxGeometry>
        </mxCell>
        <mxCell id="GxQh0LprjcnWy6-oS0J2-72" value="" style="html=1;points=[[0,0,0,0,5],[0,1,0,0,-5],[1,0,0,0,5],[1,1,0,0,-5]];perimeter=orthogonalPerimeter;outlineConnect=0;targetShapes=umlLifeline;portConstraint=eastwest;newEdgeStyle={&quot;curved&quot;:0,&quot;rounded&quot;:0};fillColor=#808080;align=center;verticalAlign=middle;fontFamily=Helvetica;fontSize=10;fontColor=default;" vertex="1" parent="1">
          <mxGeometry x="95" y="390" width="10" height="30" as="geometry" />
        </mxCell>
        <mxCell id="GxQh0LprjcnWy6-oS0J2-74" value="" style="endArrow=none;html=1;rounded=0;startArrow=none;startFill=0;" edge="1" parent="1" source="GxQh0LprjcnWy6-oS0J2-76">
          <mxGeometry width="50" height="50" relative="1" as="geometry">
            <mxPoint x="105" y="394.58" as="sourcePoint" />
            <mxPoint x="255" y="394.58" as="targetPoint" />
          </mxGeometry>
        </mxCell>
        <mxCell id="GxQh0LprjcnWy6-oS0J2-75" value="" style="endArrow=none;html=1;rounded=0;startArrow=classic;startFill=1;" edge="1" parent="1" target="GxQh0LprjcnWy6-oS0J2-76">
          <mxGeometry width="50" height="50" relative="1" as="geometry">
            <mxPoint x="105" y="394.58" as="sourcePoint" />
            <mxPoint x="255" y="394.58" as="targetPoint" />
          </mxGeometry>
        </mxCell>
        <mxCell id="GxQh0LprjcnWy6-oS0J2-76" value="&lt;b&gt;200&lt;/b&gt;: Public Timeline Page = 1" style="text;html=1;strokeColor=none;fillColor=none;align=center;verticalAlign=middle;whiteSpace=wrap;rounded=0;" vertex="1" parent="1">
          <mxGeometry x="130" y="380" width="100" height="30" as="geometry" />
        </mxCell>
        <mxCell id="GxQh0LprjcnWy6-oS0J2-77" value="" style="rounded=0;whiteSpace=wrap;html=1;fillColor=none;" vertex="1" parent="1">
          <mxGeometry x="40" y="490" width="590" height="70" as="geometry" />
        </mxCell>
        <mxCell id="GxQh0LprjcnWy6-oS0J2-78" value="" style="html=1;points=[[0,0,0,0,5],[0,1,0,0,-5],[1,0,0,0,5],[1,1,0,0,-5]];perimeter=orthogonalPerimeter;outlineConnect=0;targetShapes=umlLifeline;portConstraint=eastwest;newEdgeStyle={&quot;curved&quot;:0,&quot;rounded&quot;:0};fillColor=#808080;align=center;verticalAlign=middle;fontFamily=Helvetica;fontSize=10;fontColor=default;" vertex="1" parent="1">
          <mxGeometry x="255" y="510" width="10" height="30" as="geometry" />
        </mxCell>
        <mxCell id="GxQh0LprjcnWy6-oS0J2-79" value="" style="html=1;points=[[0,0,0,0,5],[0,1,0,0,-5],[1,0,0,0,5],[1,1,0,0,-5]];perimeter=orthogonalPerimeter;outlineConnect=0;targetShapes=umlLifeline;portConstraint=eastwest;newEdgeStyle={&quot;curved&quot;:0,&quot;rounded&quot;:0};fillColor=#808080;align=center;verticalAlign=middle;fontFamily=Helvetica;fontSize=10;fontColor=default;" vertex="1" parent="1">
          <mxGeometry x="95" y="510" width="10" height="30" as="geometry" />
        </mxCell>
        <mxCell id="GxQh0LprjcnWy6-oS0J2-80" style="edgeStyle=orthogonalEdgeStyle;rounded=0;orthogonalLoop=1;jettySize=auto;html=1;curved=0;" edge="1" parent="1" source="GxQh0LprjcnWy6-oS0J2-78" target="GxQh0LprjcnWy6-oS0J2-79">
          <mxGeometry relative="1" as="geometry" />
        </mxCell>
        <mxCell id="GxQh0LprjcnWy6-oS0J2-81" value="&lt;font style=&quot;font-size: 9px;&quot;&gt;&lt;b&gt;401&lt;/b&gt;: Unauthorised&lt;/font&gt;" style="edgeLabel;html=1;align=center;verticalAlign=middle;resizable=0;points=[];" vertex="1" connectable="0" parent="GxQh0LprjcnWy6-oS0J2-80">
          <mxGeometry x="-0.248" y="-1" relative="1" as="geometry">
            <mxPoint x="-13" y="1" as="offset" />
          </mxGeometry>
        </mxCell>
      </root>
    </mxGraphModel>
  </diagram>
</mxfile>
